<svg width="432" height="273" viewBox="0 0 432 273" fill="none" xmlns="http://www.w3.org/2000/svg">
<rect width="432" height="273" fill="#1E1E1E"/>
<rect width="432" height="273" fill="#0F0C0C"/>
<path d="M50 72H382V201H50V72Z" fill="#0F0C0C"/>
<path d="M99.756 194.592V196.003H94.3439V199.589H100.47V201H92.8498V189.877H100.47V191.288H94.3439V194.592H99.756ZM141.124 189.877V201H140.56L133.338 193.048V201H131.844V189.877H132.409L139.63 197.929V189.877H141.124ZM177.247 194.924H182.144V199.489C181.879 199.777 181.536 200.059 181.115 200.336C180.694 200.602 180.207 200.823 179.654 201C179.112 201.166 178.514 201.249 177.861 201.249C177.02 201.249 176.245 201.1 175.537 200.801C174.829 200.491 174.209 200.07 173.677 199.539C173.146 199.008 172.731 198.394 172.432 197.696C172.145 196.988 172.001 196.235 172.001 195.438C172.001 194.642 172.145 193.895 172.432 193.197C172.731 192.489 173.146 191.869 173.677 191.338C174.209 190.807 174.829 190.392 175.537 190.093C176.245 189.783 177.02 189.628 177.861 189.628C178.669 189.628 179.328 189.739 179.837 189.96C180.357 190.181 180.811 190.469 181.198 190.823V192.467C180.954 192.29 180.678 192.096 180.368 191.886C180.069 191.675 179.715 191.493 179.305 191.338C178.907 191.172 178.426 191.089 177.861 191.089C177.031 191.089 176.289 191.277 175.636 191.653C174.983 192.03 174.469 192.55 174.093 193.214C173.716 193.867 173.528 194.608 173.528 195.438C173.528 196.269 173.716 197.01 174.093 197.663C174.469 198.316 174.983 198.836 175.636 199.224C176.289 199.6 177.031 199.788 177.861 199.788C178.426 199.788 178.879 199.733 179.222 199.622C179.565 199.5 179.837 199.368 180.036 199.224C180.235 199.069 180.396 198.941 180.517 198.842L180.534 196.252H177.247V194.924ZM218.101 199.589V201H212.854V199.589H214.73V191.288H212.854V189.877H218.101V191.288H216.225V199.589H218.101ZM259.253 189.877V201H258.689L251.467 193.048V201H249.973V189.877H250.537L257.759 197.929V189.877H259.253ZM298.032 194.592V196.003H292.62V199.589H298.746V201H291.126V189.877H298.746V191.288H292.62V194.592H298.032ZM332.809 189.711C333.462 189.711 333.999 189.805 334.42 189.993C334.851 190.181 335.228 190.381 335.549 190.591V192.135C335.239 191.902 334.862 191.687 334.42 191.487C333.977 191.277 333.496 191.172 332.975 191.172C332.643 191.172 332.295 191.233 331.93 191.354C331.575 191.465 331.277 191.648 331.033 191.902C330.79 192.157 330.668 192.483 330.668 192.882C330.668 193.325 330.828 193.662 331.149 193.895C331.47 194.127 331.858 194.348 332.311 194.559L333.839 195.256C334.602 195.599 335.178 195.981 335.565 196.401C335.953 196.822 336.146 197.381 336.146 198.078C336.146 198.687 335.969 199.224 335.615 199.688C335.261 200.142 334.796 200.502 334.221 200.768C333.645 201.033 333.014 201.166 332.328 201.166C331.686 201.166 331.094 201.055 330.552 200.834C330.009 200.613 329.539 200.364 329.14 200.087V198.543C329.572 198.842 330.065 199.113 330.618 199.356C331.182 199.589 331.819 199.705 332.527 199.705C333.081 199.705 333.568 199.567 333.988 199.29C334.409 199.013 334.619 198.632 334.619 198.145C334.619 197.868 334.53 197.63 334.353 197.431C334.187 197.231 333.983 197.06 333.739 196.916C333.496 196.772 333.258 196.65 333.025 196.551L331.182 195.721C330.386 195.367 329.843 194.951 329.556 194.476C329.268 194 329.124 193.452 329.124 192.832C329.124 192.245 329.29 191.72 329.622 191.255C329.965 190.779 330.419 190.403 330.983 190.126C331.548 189.849 332.156 189.711 332.809 189.711Z" fill="#F0F8FF"/>
<path d="M165.663 76.0244L160.316 105.98H68.6904L69.8623 99.3154C70.9365 92.8701 74.1592 87.377 79.5303 82.8359C84.9502 78.2949 90.8828 76.0244 97.3281 76.0244H165.663ZM153.358 145.971L148.012 176H79.6768C73.9639 176 69.3252 174.169 65.7607 170.507C62.1475 166.796 60.3408 162.23 60.3408 156.811C60.3408 156.127 60.3652 155.443 60.4141 154.76C60.4629 154.027 60.5361 153.319 60.6338 152.636L67.1523 114.33H97.1816L91.6885 145.971H153.358ZM282.411 76.0244L277.064 105.98H229.75L252.382 76.0244H282.411ZM216.054 105.98H168.739L174.013 76.0244H204.042L216.054 105.98ZM275.526 114.33L264.687 176H234.73L242.055 134.179L210.561 176L193.715 134.179L186.391 176H156.581L167.201 114.33H275.526ZM374.11 76.0244L368.764 105.98H285.487L290.761 76.0244H374.11ZM367.299 114.33L363.271 137.694H309.95L303.139 176H273.329L283.949 114.33H367.299Z" fill="#CC0000"/>
</svg>
